<svg xmlns="http://www.w3.org/2000/svg" version="1.1" xmlns:xlink="http://www.w3.org/1999/xlink" xmlns:svgjs="http://svgjs.dev/svgjs" width="1000" height="1125" viewBox="0 0 1000 1125"><g transform="matrix(1,0,0,1,0,0)"><svg viewBox="0 0 320 360" data-background-color="#ffffff" preserveAspectRatio="xMidYMid meet" height="1125" width="1000" xmlns="http://www.w3.org/2000/svg" xmlns:xlink="http://www.w3.org/1999/xlink"><g id="tight-bounds" transform="matrix(1,0,0,1,0,0)"><svg viewBox="0 0 320 360" height="360" width="320"><g><svg></svg></g><g><svg viewBox="0 0 320 360" height="360" width="320"><g><path d="M297.491 100.645c-12.426-21.51-112.674-79.355-137.491-79.355-24.817 0-125.028 57.845-137.491 79.355-11.591 20.02-11.591 138.726 0 158.746 12.463 21.474 112.674 79.319 137.491 79.319 24.817 0 125.064-57.845 137.491-79.355 11.591-20.02 11.591-138.69 0-158.71zM309.481 93.705c-14.461-24.998-119.469-86.295-149.481-86.295-30.012 0-135.02 61.297-149.481 86.295-14.025 24.199-14.025 148.391 0 172.59 14.461 24.998 119.469 86.295 149.481 86.295 30.012 0 135.02-61.297 149.481-86.259 14.025-24.235 14.025-148.427 0-172.626zM300.906 261.353c-12.753 22.055-115.472 81.317-140.906 81.318-25.434 0-128.153-59.298-140.906-81.354-11.881-20.529-11.881-142.178 0-162.707 12.753-22.019 115.472-81.281 140.906-81.281 25.434 0 128.153 59.298 140.906 81.318 11.881 20.529 11.881 142.178 0 162.706z" fill="#ff5858" fill-rule="nonzero" stroke="none" stroke-width="1" stroke-linecap="butt" stroke-linejoin="miter" stroke-miterlimit="10" stroke-dasharray="" stroke-dashoffset="0" font-family="none" font-weight="none" font-size="none" text-anchor="none" style="mix-blend-mode: normal" data-fill-palette-color="tertiary"></path></g><g transform="matrix(1,0,0,1,59.263622974963184,90)"><svg viewBox="0 0 201.47275405007363 180" height="180" width="201.47275405007363"><g><svg viewBox="0 0 201.47275405007363 180" height="180" width="201.47275405007363"><g><svg viewBox="0 0 201.47275405007363 180" height="180" width="201.47275405007363"><g><svg viewBox="0 0 201.47275405007363 180" height="180" width="201.47275405007363"><g id="textblocktransform"><svg viewBox="0 0 201.47275405007363 180" height="180" width="201.47275405007363" id="textblock"><g><svg viewBox="0 0 201.47275405007363 180" height="180" width="201.47275405007363"><g transform="matrix(1,0,0,1,0,0)"><svg width="201.47275405007363" viewBox="-2.05 -33.95 38 33.95" height="180" data-palette-color="#ffffff"><path d="M35.45-22.9L30.55-5.9Q30.35-5.25 30.35-4.6L30.35-4.6Q30.35-4.05 30.5-3.68 30.65-3.3 30.83-3.08 31-2.85 31.05-2.75L31.05-2.75Q31.55-2.25 31.55-1.75L31.55-1.75Q31.55-1.65 31.45-1.25L31.45-1.25Q31.25-0.55 30.58-0.28 29.9 0 28.5 0L28.5 0 16.65 0Q15.6 0 15.03-0.35 14.45-0.7 14.45-1.3L14.45-1.3Q14.45-1.6 14.6-1.95L14.6-1.95Q14.75-2.35 15.03-2.58 15.3-2.8 15.8-3.1L15.8-3.1Q16.6-3.55 17.1-4.1 17.6-4.65 17.95-5.9L17.95-5.9 19.25-10.2 11.45-10.2 10.1-7.35Q9.25-5.5 9.25-4.45L9.25-4.45Q9.25-3.85 9.45-3.48 9.65-3.1 10.05-2.7L10.05-2.7Q10.4-2.3 10.53-2.02 10.65-1.75 10.55-1.3L10.55-1.3Q10.35-0.55 9.73-0.28 9.1 0 7.75 0L7.75 0 0.3 0Q-0.85 0-1.45-0.43-2.05-0.85-2.05-1.55L-2.05-1.55Q-2.05-2.35-1.48-2.83-0.9-3.3 0.25-3.85L0.25-3.85Q1.75-4.6 2.65-5.33 3.55-6.05 4.2-7.35L4.2-7.35 13.1-25.8Q15.15-30.1 17.93-32.02 20.7-33.95 25.25-33.95L25.25-33.95Q30.35-33.95 33.15-31.88 35.95-29.8 35.95-26.1L35.95-26.1Q35.95-24.55 35.45-22.9L35.45-22.9ZM13.75-15.2L20.75-15.2 23.4-24Q23.6-24.6 23.6-25.25L23.6-25.25Q23.6-26.2 23.08-26.68 22.55-27.15 21.6-27.15L21.6-27.15Q20.4-27.15 19.55-26.45 18.7-25.75 17.85-23.95L17.85-23.95 13.75-15.2Z" opacity="1" transform="matrix(1,0,0,1,0,0)" fill="#ffffff" class="wordmark-text-0" data-fill-palette-color="quaternary" id="text-0"></path></svg></g></svg></g></svg></g></svg></g></svg></g></svg></g></svg></g></svg></g><defs></defs></svg><rect width="320" height="360" fill="none" stroke="none" visibility="hidden"></rect></g></svg></g></svg>